<?xml version="1.0" encoding="utf-8"?>
<!-- Generator: Adobe Illustrator 24.0.0, SVG Export Plug-In . SVG Version: 6.00 Build 0)  -->
<svg version="1.0" id="Camada_1" xmlns="http://www.w3.org/2000/svg" xmlns:xlink="http://www.w3.org/1999/xlink" x="0px" y="0px"
	 viewBox="0 0 208.9 37.8" style="enable-background:new 0 0 208.9 37.8;" xml:space="preserve">
<style type="text/css">
	.st0{fill:#FFFFFF;}
	.st1{fill:#1ECFD2;}
	.st2{fill:#6F51EE;}
</style>
<g>
	<path class="st0" d="M114.6,30.2l-1.4-1.4c-0.7-0.7-1-1.6-1-2.5V10.7c0-1.7-1.1-3.2-2.8-3.6c-2.3-0.5-4.3,1.2-4.3,3.4v11.8
		c0,2.2-0.9,4.3-2.4,5.9c-1.7,1.7-4.2,2.7-6.9,2.3c-4.2-0.5-7.2-4.2-7.2-8.4V10.8c0-1.9-1.5-3.6-3.4-3.7c-2-0.1-3.6,1.5-3.6,3.5
		v11.5c0,7.5,6.1,14.7,13.6,15.5c4.2,0.5,8.1-0.8,11.1-3.1c0.9-0.7,2.1-0.6,2.9,0.2l0.5,0.5c1.6,1.6,4.3,1.4,5.5-0.5
		C116.1,33.3,115.8,31.4,114.6,30.2z"/>
	<path class="st0" d="M130.3,8.7h-1.6c-1,0-1.8-0.8-1.8-1.8V4c0-1.7-1-3.3-2.7-3.8c-2.3-0.7-4.4,1-4.4,3.2v26.5
		c0,1.4,0.6,2.7,1.5,3.7l3,3c1.4,1.4,3.6,1.4,5,0c1.4-1.4,1.4-3.6,0-5l-1.5-1.5c-0.6-0.6-1-1.5-1-2.3v-9.9c0-1.2,0.9-2.1,2.1-2.1
		h1.2c1.9,0,3.6-1.5,3.7-3.4C133.9,10.3,132.3,8.7,130.3,8.7z"/>
	<path class="st0" d="M171.1,30.2l-1.3-1.3c-0.7-0.7-1-1.6-1-2.5V10.8c0-1.8-1.3-3.4-3.1-3.6c-2.1-0.3-4,1.4-4,3.5v11.8
		c0,2.2-0.9,4.3-2.4,5.9c-1.7,1.7-4.2,2.7-6.9,2.3c-4.2-0.5-7.2-4.2-7.2-8.4V10.8c0-1.8-1.3-3.4-3.1-3.6c-2.1-0.3-4,1.4-4,3.5v11.5
		c0,7.9,6.4,15.1,14.3,15.6c3.9,0.3,7.6-1,10.4-3.2c0.9-0.7,2.2-0.6,2.9,0.2l0.5,0.5c1.5,1.5,3.7,1.4,5.1,0
		C172.6,33.8,172.5,31.5,171.1,30.2z"/>
	<path class="st0" d="M29.5,26.3c-1.2-1.2-3.1-1.2-4.3,0l-2.8,2.8c0,0,0,0-0.1,0.1l0,0c-0.2,0.2-0.4,0.3-0.6,0.5l0,0
		c0,0-0.1,0.1-0.2,0.1l0,0c-0.1,0-0.1,0.1-0.2,0.1l0,0c-0.1,0-0.1,0.1-0.2,0.1l0,0c-0.1,0-0.1,0.1-0.2,0.1l0,0
		c-0.1,0.1-0.2,0.1-0.4,0.2s-0.3,0.2-0.5,0.2l0,0c-0.1,0-0.1,0.1-0.2,0.1h-0.1c-0.1,0-0.1,0-0.2,0.1h-0.1c-0.1,0-0.1,0-0.2,0.1h-0.1
		c-0.1,0-0.1,0-0.2,0.1h-0.1c-0.1,0-0.1,0-0.2,0.1h-0.1c-0.1,0-0.1,0-0.2,0.1l0,0c-0.2,0-0.3,0.1-0.5,0.1l0,0c-0.1,0-0.1,0-0.2,0
		h-0.1c-0.1,0-0.1,0-0.2,0h-0.1c-0.1,0-0.1,0-0.2,0h-0.1h-0.1h-0.1c-0.1,0-0.1,0-0.2,0h-0.1h-0.1h-0.1c-0.1,0-0.1,0-0.2,0h-0.1
		c-0.1,0-0.2,0-0.3,0s-0.2,0-0.3,0h-0.1h-0.1H15c-0.1,0-0.1,0-0.2,0h-0.1l0,0h-0.1h-0.1h-0.1h-0.1c-0.1,0-0.1,0-0.2,0H14
		c-0.1,0-0.1,0-0.2,0h-0.1c-0.1,0-0.1,0-0.2,0l0,0c-0.2,0-0.3-0.1-0.5-0.1h-0.1c-0.1,0-0.1,0-0.2-0.1h-0.1c-0.1,0-0.1,0-0.2-0.1
		h-0.1c-0.1,0-0.1,0-0.2-0.1l-1-0.4l14.1-14c1.8-1.7,1.6-4.6-0.3-6.2c-0.5-0.4-1.1-0.8-1.7-1.1c-2.4-1.4-5.1-2.2-7.8-2.2h-0.1
		c-1.6,0-3.1,0.2-4.6,0.7c-3,1-5.8,2.9-7.7,5.5c-2,2.7-3,5.8-3,9.2c0,2.8,0.7,5.5,2.2,7.8c0.7,1.1,1.4,2.1,2.3,3
		c0.4,0.4,0.9,0.8,1.4,1.2c0.2,0.1,0.4,0.3,0.6,0.4c0.2,0.1,0.4,0.3,0.6,0.4c0.2,0.1,0.4,0.3,0.6,0.4c0.2,0.1,0.4,0.2,0.7,0.4
		c0.2,0.1,0.4,0.2,0.7,0.3c0.2,0.1,0.5,0.2,0.7,0.3c0.3,0.1,0.7,0.3,1.1,0.4c0.2,0.1,0.5,0.1,0.7,0.2c0.2,0,0.3,0.1,0.5,0.1
		c0.9,0.2,1.7,0.3,2.6,0.3c0.3,0,0.5,0,0.7,0c1.3,0,2.6-0.2,3.8-0.5c0.2-0.1,0.5-0.1,0.7-0.2c0.4-0.1,0.7-0.2,1.1-0.4
		c0.2-0.1,0.5-0.2,0.7-0.3s0.4-0.2,0.7-0.3c0.2-0.1,0.4-0.2,0.7-0.4c0.2-0.1,0.4-0.3,0.6-0.4c0.2-0.1,0.4-0.3,0.6-0.4
		c0.2-0.1,0.4-0.3,0.6-0.4c0.5-0.4,0.9-0.8,1.4-1.2l2.6-2.6C30.7,29.5,30.7,27.5,29.5,26.3L29.5,26.3z M7.6,26.2l-0.3-0.9
		c-0.3-0.9-0.4-1.9-0.4-2.8c0-2.5,1-4.8,2.7-6.5s4-2.7,6.5-2.7c0,0,0,0,0.1,0c0.7,0,1.4,0.1,2.2,0.3c0.2,0.1,0.4,0.1,0.6,0.2
		l0.9,0.3L7.6,26.2z"/>
	<path class="st1" d="M39.2,14.9c-2,0.1-3.5,1.8-3.5,3.7v15.5c0,2,1.6,3.5,3.5,3.5l0,0c2,0,3.5-1.6,3.5-3.5V18.5
		C42.8,16.5,41.2,14.9,39.2,14.9z"/>
	<path class="st2" d="M74.6,0.6c-1.4-0.9-3.2-0.7-4.4,0.5L56,15.3L41.8,1.1c-0.8-0.8-1.9-1.2-3-1c-1.5,0.2-2.7,1.4-3,2.9
		c-0.2,1.2,0.2,2.3,1,3.1l16.7,16.7c0.5,0.5,1.1,0.9,1.8,1c1.2,0.3,2.4-0.1,3.3-1l10.7-10.7V34c0,2,1.5,3.5,3.4,3.6c0,0,0,0,0.1,0
		c0.8,0,1.6-0.2,2.2-0.7c0.9-0.7,1.5-1.7,1.5-2.9V3.5C76.3,2.4,75.6,1.2,74.6,0.6z"/>
	<g>
		<path class="st0" d="M207.9,30.3l-1.4-1.4c-0.7-0.7-1.1-1.7-1.1-2.8v-3.7l0,0c0-8.5-6.9-15.3-15.3-15.3l0,0
			c-8.5,0-15.3,6.9-15.3,15.3l0,0c0,8.5,6.9,15.3,15.3,15.3c3.5,0,6.7-1.2,9.3-3.2c0.9-0.7,2.2-0.6,3.1,0.2l0.3,0.3
			c1.4,1.4,3.6,1.5,5,0.2C209.3,34,209.3,31.7,207.9,30.3z M198.4,23.1c0,1.8-0.7,3.4-1.9,4.7c-2,2.4-5.4,3.7-9,2.5
			c-3.4-1.1-5.6-4.3-5.6-7.9l0,0c0-4.6,3.7-8.3,8.3-8.3l0,0c4.6,0,8.3,3.7,8.3,8.3v0.7H198.4z"/>
	</g>
</g>
</svg>
